<svg id="layer1" xmlns="http://www.w3.org/2000/svg" viewBox="0 0 168.76 168.76"><defs><style>.cls-1{fill:none;stroke:#000;stroke-miterlimit:10;}.cls-2{fill:#e70000;}</style></defs><title>anpan</title><circle class="cls-1" cx="84.38" cy="84.38" r="83.88"/><circle class="cls-2" cx="86.62" cy="102.9" r="37.14"/><path class="cls-1" d="M21.68,134.38c4-1.86,14.71-7.56,20.41-20a33.46,33.46,0,0,0,3.26-13.06c.5-16.53-13.21-27.94-15.51-29.8" transform="translate(0 0)"/><path class="cls-1" d="M138.05,94.38" transform="translate(0 0)"/><path class="cls-1" d="M150.68,80.91A33.77,33.77,0,0,0,135.6,91.56c-1.95,2.43-9.28,11.58-6.94,23.67,2.14,11.08,10.89,16.85,12.65,18" transform="translate(0 0)"/><path class="cls-1" d="M44.58,40.5a18.28,18.28,0,0,1,17.55-6.94C70.41,35.06,74.3,42,74.78,43" transform="translate(0 0)"/><path class="cls-1" d="M99.68,42.13A21.41,21.41,0,0,1,111.52,36c10.14-1.55,17.44,5.24,18.36,6.12" transform="translate(0 0)"/><ellipse cx="63.97" cy="56.19" rx="4.29" ry="9.57"/><ellipse cx="114.99" cy="56.19" rx="3.88" ry="9.57"/><path class="cls-1" d="M56.82,147.85A91.7,91.7,0,0,1,75.6,145c6.45-.3,11.31-.48,17.14,1.63a32.8,32.8,0,0,1,9.39,5.31" transform="translate(0 0)"/><path class="cls-1" d="M180.09,191.56" transform="translate(0 0)"/></svg>